<svg width="156" height="107" viewBox="0 0 156 107" fill="none" xmlns="http://www.w3.org/2000/svg">
<circle opacity="0.2" cx="144" cy="12" r="10.5" stroke="#FFA723" stroke-width="3"/>
<circle opacity="0.2" cx="8" cy="89" r="6.5" stroke="#FFA723" stroke-width="3"/>
<circle opacity="0.3" cx="78" cy="55" r="50.5" stroke="#FFA723" stroke-width="3"/>
<path d="M75.3555 63.544C75.3555 63.72 75.3315 63.84 75.2835 63.904C75.2355 63.968 75.1235 64 74.9475 64H66.5955C66.4195 64 66.3075 63.968 66.2595 63.904C66.2115 63.84 66.1875 63.72 66.1875 63.544V62.056C66.1875 61.88 66.2115 61.76 66.2595 61.696C66.3075 61.632 66.4195 61.6 66.5955 61.6H69.3075V50.536L66.6435 50.968C66.4675 51 66.3555 50.992 66.3075 50.944C66.2595 50.88 66.2355 50.776 66.2355 50.632V49.264C66.2355 49.12 66.2595 49.008 66.3075 48.928C66.3555 48.848 66.4675 48.776 66.6435 48.712L70.4115 47.656C70.8435 47.528 71.2275 47.528 71.5635 47.656C71.9155 47.768 72.0915 48.064 72.0915 48.544V61.6H74.9475C75.1235 61.6 75.2355 61.632 75.2835 61.696C75.3315 61.76 75.3555 61.88 75.3555 62.056V63.544ZM87.84 55.504C88.768 55.68 89.496 56.112 90.024 56.8C90.568 57.488 90.84 58.296 90.84 59.224C90.84 59.96 90.696 60.64 90.408 61.264C90.12 61.872 89.712 62.4 89.184 62.848C88.656 63.296 88.016 63.648 87.264 63.904C86.528 64.144 85.704 64.264 84.792 64.264C83.768 64.264 82.776 64.152 81.816 63.928C80.872 63.688 80.016 63.256 79.248 62.632C79.088 62.488 79.072 62.312 79.2 62.104L80.088 60.712C80.248 60.456 80.48 60.424 80.784 60.616C81.376 61.032 81.992 61.328 82.632 61.504C83.288 61.68 83.928 61.768 84.552 61.768C85.704 61.768 86.552 61.512 87.096 61C87.656 60.472 87.936 59.776 87.936 58.912C87.936 58.624 87.872 58.344 87.744 58.072C87.632 57.784 87.448 57.536 87.192 57.328C86.952 57.104 86.632 56.928 86.232 56.8C85.848 56.672 85.392 56.608 84.864 56.608H84.192C83.92 56.608 83.728 56.568 83.616 56.488C83.504 56.392 83.448 56.192 83.448 55.888V55.096C83.448 54.792 83.496 54.584 83.592 54.472C83.688 54.36 83.848 54.304 84.072 54.304H84.72C85.632 54.304 86.328 54.104 86.808 53.704C87.288 53.304 87.528 52.768 87.528 52.096C87.528 51.744 87.448 51.44 87.288 51.184C87.128 50.928 86.92 50.72 86.664 50.56C86.408 50.4 86.112 50.288 85.776 50.224C85.456 50.144 85.128 50.104 84.792 50.104C84.152 50.104 83.504 50.2 82.848 50.392C82.192 50.584 81.616 50.856 81.12 51.208C80.816 51.4 80.584 51.368 80.424 51.112L79.608 49.84C79.528 49.728 79.488 49.632 79.488 49.552C79.488 49.472 79.544 49.392 79.656 49.312C79.992 49.024 80.376 48.776 80.808 48.568C81.24 48.344 81.688 48.16 82.152 48.016C82.632 47.872 83.112 47.768 83.592 47.704C84.088 47.624 84.568 47.584 85.032 47.584C85.752 47.584 86.432 47.672 87.072 47.848C87.728 48.008 88.296 48.264 88.776 48.616C89.272 48.952 89.664 49.384 89.952 49.912C90.24 50.424 90.384 51.032 90.384 51.736C90.384 52.568 90.144 53.32 89.664 53.992C89.2 54.648 88.592 55.112 87.84 55.384V55.504Z" fill="#05A1E4"/>
<line opacity="0.3" x1="65" y1="74.5" x2="92" y2="74.5" stroke="#FFA723"/>
</svg>
