<svg width="156" height="104" viewBox="0 0 156 104" fill="none" xmlns="http://www.w3.org/2000/svg">
<circle opacity="0.2" cx="144" cy="12" r="10.5" stroke="#FFA723" stroke-width="3"/>
<circle opacity="0.2" cx="8" cy="89" r="6.5" stroke="#FFA723" stroke-width="3"/>
<circle opacity="0.3" cx="76" cy="52" r="50.5" stroke="#FFA723" stroke-width="3"/>
<path d="M51.168 60.544C51.168 60.72 51.144 60.84 51.096 60.904C51.048 60.968 50.936 61 50.76 61H42.408C42.232 61 42.12 60.968 42.072 60.904C42.024 60.84 42 60.72 42 60.544V59.056C42 58.88 42.024 58.76 42.072 58.696C42.12 58.632 42.232 58.6 42.408 58.6H45.12V47.536L42.456 47.968C42.28 48 42.168 47.992 42.12 47.944C42.072 47.88 42.048 47.776 42.048 47.632V46.264C42.048 46.12 42.072 46.008 42.12 45.928C42.168 45.848 42.28 45.776 42.456 45.712L46.224 44.656C46.656 44.528 47.04 44.528 47.376 44.656C47.728 44.768 47.904 45.064 47.904 45.544V58.6H50.76C50.936 58.6 51.048 58.632 51.096 58.696C51.144 58.76 51.168 58.88 51.168 59.056V60.544ZM67.8045 57.136C67.8045 57.312 67.7725 57.432 67.7085 57.496C67.6445 57.544 67.5245 57.568 67.3485 57.568H65.7405V60.592C65.7405 60.768 65.7005 60.88 65.6205 60.928C65.5565 60.976 65.4365 61 65.2605 61H63.3885C63.2285 61 63.1165 60.976 63.0525 60.928C62.9885 60.88 62.9565 60.768 62.9565 60.592V57.592H55.9005C55.5485 57.592 55.2285 57.52 54.9405 57.376C54.6685 57.216 54.5325 56.872 54.5325 56.344V55.936C54.5325 55.648 54.5725 55.376 54.6525 55.12C54.7325 54.848 54.8765 54.576 55.0845 54.304L61.7805 45.64C61.9725 45.384 62.1965 45.136 62.4525 44.896C62.7245 44.656 63.0765 44.536 63.5085 44.536H64.4205C64.9165 44.536 65.2605 44.64 65.4525 44.848C65.6445 45.056 65.7405 45.416 65.7405 45.928V55.264H67.3485C67.5245 55.264 67.6445 55.296 67.7085 55.36C67.7725 55.408 67.8045 55.52 67.8045 55.696V57.136ZM62.9325 48.304L62.8605 48.232L57.5565 55.168L57.6045 55.264H62.9325V48.304ZM86.2236 48.4C86.7516 48.4 87.1036 48.512 87.2796 48.736C87.4716 48.96 87.5676 49.304 87.5676 49.768V60.568C87.5676 60.744 87.5276 60.864 87.4476 60.928C87.3676 60.976 87.2316 61 87.0396 61H85.2876C85.1116 61 84.9756 60.976 84.8796 60.928C84.7996 60.864 84.7596 60.744 84.7596 60.568V50.752H80.9916L80.8956 52.264C80.7996 53.784 80.6796 55.072 80.5356 56.128C80.3916 57.184 80.1756 58.064 79.8876 58.768C79.5996 59.456 79.2076 60.008 78.7116 60.424C78.2156 60.824 77.5596 61.144 76.7436 61.384C76.5356 61.448 76.3836 61.464 76.2876 61.432C76.1916 61.416 76.1196 61.328 76.0716 61.168L75.5916 59.848C75.5276 59.656 75.5116 59.528 75.5436 59.464C75.5916 59.384 75.7116 59.296 75.9036 59.2C76.3036 59.024 76.6316 58.816 76.8876 58.576C77.1596 58.336 77.3836 57.976 77.5596 57.496C77.7356 57.016 77.8796 56.368 77.9916 55.552C78.1036 54.72 78.2076 53.624 78.3036 52.264L78.4956 49.744C78.5276 49.248 78.6636 48.904 78.9036 48.712C79.1436 48.504 79.4796 48.4 79.9116 48.4H86.2236ZM95.9488 48.112C97.7888 48.112 99.1488 48.584 100.029 49.528C100.925 50.472 101.373 51.768 101.373 53.416C101.373 53.832 101.325 54.176 101.229 54.448C101.133 54.72 100.997 54.936 100.821 55.096C100.645 55.256 100.437 55.368 100.197 55.432C99.9728 55.496 99.7248 55.528 99.4528 55.528H93.0688C93.0848 56.152 93.1808 56.68 93.3568 57.112C93.5328 57.528 93.7728 57.872 94.0768 58.144C94.3808 58.4 94.7328 58.584 95.1328 58.696C95.5328 58.808 95.9648 58.864 96.4288 58.864C96.9408 58.864 97.4448 58.8 97.9408 58.672C98.4368 58.544 98.8688 58.392 99.2368 58.216C99.4928 58.104 99.6688 58.152 99.7648 58.36L100.413 59.728C100.525 59.984 100.469 60.168 100.245 60.28C99.6368 60.648 98.9728 60.904 98.2528 61.048C97.5328 61.192 96.8448 61.264 96.1888 61.264C94.2528 61.264 92.7728 60.744 91.7488 59.704C90.7248 58.664 90.2128 57.016 90.2128 54.76C90.2128 53.704 90.3568 52.768 90.6448 51.952C90.9328 51.12 91.3248 50.424 91.8208 49.864C92.3328 49.288 92.9408 48.856 93.6448 48.568C94.3488 48.264 95.1168 48.112 95.9488 48.112ZM95.9968 50.44C95.5648 50.44 95.1808 50.528 94.8448 50.704C94.5088 50.864 94.2208 51.088 93.9808 51.376C93.7408 51.664 93.5488 51.992 93.4048 52.36C93.2608 52.728 93.1808 53.112 93.1648 53.512H98.6848C98.6848 53.08 98.6448 52.68 98.5648 52.312C98.4848 51.944 98.3408 51.624 98.1328 51.352C97.9408 51.064 97.6688 50.84 97.3168 50.68C96.9808 50.52 96.5408 50.44 95.9968 50.44ZM109.383 50.728V60.52C109.383 60.728 109.343 60.864 109.263 60.928C109.199 60.976 109.071 61 108.879 61H107.151C106.959 61 106.823 60.968 106.743 60.904C106.663 60.84 106.623 60.712 106.623 60.52V50.728H103.095C102.903 50.728 102.775 50.688 102.711 50.608C102.647 50.528 102.615 50.408 102.615 50.248V48.928C102.615 48.752 102.639 48.624 102.687 48.544C102.751 48.448 102.887 48.4 103.095 48.4H113.031C113.239 48.4 113.367 48.448 113.415 48.544C113.479 48.624 113.511 48.752 113.511 48.928V50.248C113.511 50.408 113.479 50.528 113.415 50.608C113.351 50.688 113.223 50.728 113.031 50.728H109.383Z" fill="#05A1E4"/>
<line opacity="0.3" x1="63" y1="71.5" x2="90" y2="71.5" stroke="#FFA723"/>
</svg>
