<svg width="156" height="104" viewBox="0 0 156 104" fill="none" xmlns="http://www.w3.org/2000/svg">
<circle opacity="0.2" cx="144" cy="12" r="10.5" stroke="#FFA723" stroke-width="3"/>
<circle opacity="0.2" cx="8" cy="89" r="6.5" stroke="#FFA723" stroke-width="3"/>
<circle opacity="0.3" cx="76" cy="52" r="50.5" stroke="#FFA723" stroke-width="3"/>
<path d="M58.864 60.544C58.864 60.72 58.84 60.84 58.792 60.904C58.744 60.968 58.632 61 58.456 61H49.456C48.736 61 48.224 60.864 47.92 60.592C47.616 60.304 47.464 59.776 47.464 59.008C47.464 58.48 47.64 57.864 47.992 57.16C48.36 56.456 48.896 55.744 49.6 55.024C50.256 54.352 50.928 53.776 51.616 53.296C52.304 52.8 52.896 52.4 53.392 52.096C53.888 51.792 54.304 51.52 54.64 51.28C54.976 51.024 55.24 50.784 55.432 50.56C55.64 50.32 55.784 50.088 55.864 49.864C55.944 49.624 55.984 49.368 55.984 49.096C55.984 48.52 55.752 48.048 55.288 47.68C54.824 47.312 54.112 47.128 53.152 47.128C52.544 47.128 51.92 47.232 51.28 47.44C50.656 47.648 50.056 47.96 49.48 48.376C49.352 48.456 49.232 48.504 49.12 48.52C49.024 48.52 48.936 48.456 48.856 48.328L47.92 47.008C47.776 46.784 47.808 46.592 48.016 46.432C48.784 45.84 49.624 45.392 50.536 45.088C51.448 44.768 52.384 44.608 53.344 44.608C54.096 44.608 54.8 44.696 55.456 44.872C56.128 45.048 56.712 45.32 57.208 45.688C57.72 46.04 58.12 46.488 58.408 47.032C58.712 47.576 58.864 48.216 58.864 48.952C58.864 49.544 58.768 50.08 58.576 50.56C58.4 51.04 58.136 51.488 57.784 51.904C57.448 52.304 57.032 52.688 56.536 53.056C56.056 53.408 55.52 53.752 54.928 54.088C54.48 54.344 54.032 54.632 53.584 54.952C53.136 55.272 52.712 55.624 52.312 56.008C51.928 56.392 51.576 56.8 51.256 57.232C50.952 57.664 50.712 58.12 50.536 58.6H58.456C58.632 58.6 58.744 58.632 58.792 58.696C58.84 58.76 58.864 58.88 58.864 59.056V60.544ZM74.7805 52.912C74.7805 54.16 74.6445 55.296 74.3725 56.32C74.1165 57.344 73.7165 58.224 73.1725 58.96C72.6445 59.68 71.9645 60.248 71.1325 60.664C70.3005 61.064 69.3165 61.264 68.1805 61.264C67.0765 61.264 66.1085 61.072 65.2765 60.688C64.4605 60.288 63.7805 59.728 63.2365 59.008C62.7085 58.272 62.3085 57.392 62.0365 56.368C61.7805 55.344 61.6525 54.208 61.6525 52.96C61.6525 51.712 61.7885 50.576 62.0605 49.552C62.3325 48.512 62.7405 47.632 63.2845 46.912C63.8285 46.176 64.5085 45.608 65.3245 45.208C66.1565 44.808 67.1245 44.608 68.2285 44.608C69.3805 44.608 70.3725 44.808 71.2045 45.208C72.0365 45.592 72.7165 46.152 73.2445 46.888C73.7725 47.608 74.1565 48.48 74.3965 49.504C74.6525 50.528 74.7805 51.664 74.7805 52.912ZM71.9485 52.96C71.9485 52.176 71.8845 51.424 71.7565 50.704C71.6285 49.968 71.4205 49.328 71.1325 48.784C70.8445 48.224 70.4605 47.784 69.9805 47.464C69.5005 47.128 68.9005 46.96 68.1805 46.96C67.4765 46.96 66.8845 47.128 66.4045 47.464C65.9405 47.784 65.5645 48.216 65.2765 48.76C65.0045 49.304 64.8045 49.936 64.6765 50.656C64.5645 51.376 64.5085 52.128 64.5085 52.912C64.5085 53.696 64.5645 54.448 64.6765 55.168C64.8045 55.888 65.0045 56.528 65.2765 57.088C65.5645 57.632 65.9485 58.072 66.4285 58.408C66.9085 58.744 67.5085 58.912 68.2285 58.912C68.9325 58.912 69.5245 58.752 70.0045 58.432C70.4845 58.096 70.8685 57.656 71.1565 57.112C71.4445 56.552 71.6445 55.912 71.7565 55.192C71.8845 54.472 71.9485 53.728 71.9485 52.96ZM89.593 52.912C89.593 54.16 89.457 55.296 89.185 56.32C88.929 57.344 88.529 58.224 87.985 58.96C87.457 59.68 86.777 60.248 85.945 60.664C85.113 61.064 84.129 61.264 82.993 61.264C81.889 61.264 80.921 61.072 80.089 60.688C79.273 60.288 78.593 59.728 78.049 59.008C77.521 58.272 77.121 57.392 76.849 56.368C76.593 55.344 76.465 54.208 76.465 52.96C76.465 51.712 76.601 50.576 76.873 49.552C77.145 48.512 77.553 47.632 78.097 46.912C78.641 46.176 79.321 45.608 80.137 45.208C80.969 44.808 81.937 44.608 83.041 44.608C84.193 44.608 85.185 44.808 86.017 45.208C86.849 45.592 87.529 46.152 88.057 46.888C88.585 47.608 88.969 48.48 89.209 49.504C89.465 50.528 89.593 51.664 89.593 52.912ZM86.761 52.96C86.761 52.176 86.697 51.424 86.569 50.704C86.441 49.968 86.233 49.328 85.945 48.784C85.657 48.224 85.273 47.784 84.793 47.464C84.313 47.128 83.713 46.96 82.993 46.96C82.289 46.96 81.697 47.128 81.217 47.464C80.753 47.784 80.377 48.216 80.089 48.76C79.817 49.304 79.617 49.936 79.489 50.656C79.377 51.376 79.321 52.128 79.321 52.912C79.321 53.696 79.377 54.448 79.489 55.168C79.617 55.888 79.817 56.528 80.089 57.088C80.377 57.632 80.761 58.072 81.241 58.408C81.721 58.744 82.321 58.912 83.041 58.912C83.745 58.912 84.337 58.752 84.817 58.432C85.297 58.096 85.681 57.656 85.969 57.112C86.257 56.552 86.457 55.912 86.569 55.192C86.697 54.472 86.761 53.728 86.761 52.96ZM104.406 52.912C104.406 54.16 104.27 55.296 103.997 56.32C103.742 57.344 103.342 58.224 102.798 58.96C102.27 59.68 101.59 60.248 100.758 60.664C99.9255 61.064 98.9415 61.264 97.8055 61.264C96.7015 61.264 95.7335 61.072 94.9015 60.688C94.0855 60.288 93.4055 59.728 92.8615 59.008C92.3335 58.272 91.9335 57.392 91.6615 56.368C91.4055 55.344 91.2775 54.208 91.2775 52.96C91.2775 51.712 91.4135 50.576 91.6855 49.552C91.9575 48.512 92.3655 47.632 92.9095 46.912C93.4535 46.176 94.1335 45.608 94.9495 45.208C95.7815 44.808 96.7495 44.608 97.8535 44.608C99.0055 44.608 99.9975 44.808 100.83 45.208C101.662 45.592 102.342 46.152 102.87 46.888C103.398 47.608 103.782 48.48 104.022 49.504C104.278 50.528 104.406 51.664 104.406 52.912ZM101.574 52.96C101.574 52.176 101.51 51.424 101.382 50.704C101.254 49.968 101.046 49.328 100.758 48.784C100.47 48.224 100.086 47.784 99.6055 47.464C99.1255 47.128 98.5255 46.96 97.8055 46.96C97.1015 46.96 96.5095 47.128 96.0295 47.464C95.5655 47.784 95.1895 48.216 94.9015 48.76C94.6295 49.304 94.4295 49.936 94.3015 50.656C94.1895 51.376 94.1335 52.128 94.1335 52.912C94.1335 53.696 94.1895 54.448 94.3015 55.168C94.4295 55.888 94.6295 56.528 94.9015 57.088C95.1895 57.632 95.5735 58.072 96.0535 58.408C96.5335 58.744 97.1335 58.912 97.8535 58.912C98.5575 58.912 99.1495 58.752 99.6295 58.432C100.11 58.096 100.494 57.656 100.782 57.112C101.07 56.552 101.27 55.912 101.382 55.192C101.51 54.472 101.574 53.728 101.574 52.96Z" fill="#05A1E4"/>
<line opacity="0.3" x1="63" y1="71.5" x2="90" y2="71.5" stroke="#FFA723"/>
</svg>
