<svg width="13" height="13" viewBox="0 0 13 13" fill="none" xmlns="http://www.w3.org/2000/svg">
<path d="M3.76016 6.42992C4.28667 7.50633 5.1592 8.3749 6.238 8.8965C6.31693 8.9339 6.40424 8.95011 6.49133 8.94352C6.57843 8.93693 6.66231 8.90777 6.73471 8.85892L8.32316 7.7997C8.39341 7.75286 8.47424 7.72428 8.55833 7.71656C8.64241 7.70883 8.7271 7.72221 8.80471 7.75547L11.7764 9.02905C11.8774 9.07193 11.9616 9.14646 12.0165 9.24141C12.0715 9.33635 12.094 9.44657 12.0808 9.55546C11.9869 10.2904 11.6283 10.966 11.0722 11.4556C10.516 11.9452 9.80049 12.2153 9.05953 12.2154C6.77102 12.2154 4.57623 11.3063 2.958 9.68803C1.33977 8.0698 0.430664 5.87502 0.430664 3.5865C0.430703 2.84554 0.70082 2.13 1.19044 1.57386C1.68005 1.01772 2.3556 0.659115 3.09058 0.565188C3.19946 0.552011 3.30968 0.574578 3.40463 0.629487C3.49957 0.684397 3.5741 0.768675 3.61698 0.869624L4.89168 3.84391C4.92465 3.92084 4.93808 4.00474 4.93078 4.08812C4.92348 4.1715 4.89568 4.25178 4.84984 4.32182L3.79431 5.93464C3.74626 6.00719 3.71786 6.09096 3.71188 6.17777C3.70589 6.26458 3.72253 6.35146 3.76016 6.42992V6.42992Z" stroke="white" stroke-width="0.776923" stroke-linecap="round" stroke-linejoin="round"/>
</svg>
